<svg xmlns="http://www.w3.org/2000/svg" viewBox="0 0 640 360">
  <defs>
    <marker id="ar" markerWidth="8" markerHeight="8" refX="6" refY="3" orient="auto"><path d="M0,0 L6,3 L0,6 z" fill="#64748b"/></marker>
    <marker id="arA" markerWidth="8" markerHeight="8" refX="6" refY="3" orient="auto"><path d="M0,0 L6,3 L0,6 z" fill="#c2410c"/></marker>
  </defs>
  <rect width="640" height="360" fill="#fffdf7"/>
  <text x="320" y="26" text-anchor="middle" font-family="Arial, sans-serif" font-size="17" font-weight="bold" fill="#0369a1">The human respiratory system: airways and alveoli</text>

  <g fill="#cbd5e1" stroke="#475569">
    <path d="M282,46 L358,46 L352,78 L288,78 Z"/>
    <rect x="308" y="78" width="24" height="18"/>
    <path d="M316,96 L316,152" stroke-width="12" fill="none"/>
    <path d="M316,152 L316,172 L238,196 L214,196" stroke-width="7" fill="none"/>
    <path d="M316,152 L316,172 L402,196 L426,196" stroke-width="7" fill="none"/>
  </g>
  <text x="298" y="66" text-anchor="middle" font-family="Arial, sans-serif" font-size="12" fill="#334155">nasal cavity</text>
  <text x="366" y="70" font-family="Arial, sans-serif" font-size="12" fill="#334155">larynx</text>
  <text x="294" y="130" text-anchor="end" font-family="Arial, sans-serif" font-size="12" fill="#334155">trachea</text>
  <text x="150" y="188" text-anchor="end" font-family="Arial, sans-serif" font-size="12" fill="#334155">bronchi</text>

  <ellipse cx="196" cy="248" rx="76" ry="62" fill="#fde68a" stroke="#b45309" stroke-width="1.5"/>
  <ellipse cx="444" cy="248" rx="82" ry="64" fill="#fde68a" stroke="#b45309" stroke-width="1.5"/>

  <g stroke="#94a3b8" stroke-width="2" fill="none">
    <path d="M214,196 L214,230 M214,230 L188,250 M214,230 L240,250 M214,230 L214,256"/>
    <path d="M426,196 L426,230 M426,230 L400,250 M426,230 L452,250 M426,230 L426,258"/>
  </g>
  <g fill="#fda4af" stroke="#be123c" stroke-width="1">
    <circle cx="184" cy="254" r="4.5"/><circle cx="198" cy="260" r="4.5"/><circle cx="212" cy="256" r="4.5"/>
    <circle cx="232" cy="254" r="4.5"/><circle cx="396" cy="254" r="4.5"/><circle cx="412" cy="260" r="4.5"/>
    <circle cx="428" cy="258" r="4.5"/><circle cx="448" cy="254" r="4.5"/>
  </g>
  <text x="196" y="326" text-anchor="middle" font-family="Arial, sans-serif" font-size="13" fill="#92400e">left lung</text>
  <text x="444" y="326" text-anchor="middle" font-family="Arial, sans-serif" font-size="13" fill="#92400e">right lung</text>

  <circle cx="548" cy="120" r="48" fill="#fef2f2" stroke="#dc2626" stroke-width="1.5"/>
  <circle cx="534" cy="112" r="8" fill="#fda4af" stroke="#be123c" stroke-width="1"/>
  <circle cx="556" cy="108" r="8" fill="#fda4af" stroke="#be123c" stroke-width="1"/>
  <circle cx="548" cy="128" r="8" fill="#fda4af" stroke="#be123c" stroke-width="1"/>
  <circle cx="568" cy="124" r="8" fill="#fda4af" stroke="#be123c" stroke-width="1"/>
  <circle cx="528" cy="126" r="8" fill="#fda4af" stroke="#be123c" stroke-width="1"/>
  <text x="548" y="184" text-anchor="middle" font-family="Arial, sans-serif" font-size="12" fill="#334155">alveoli (air sacs)</text>
  <line x1="515" y1="168" x2="470" y2="192" stroke="#94a3b8" stroke-width="1" stroke-dasharray="4 3"/>

  <path d="M130,312 Q200,292 320,308 Q440,292 510,312" fill="none" stroke="#64748b" stroke-width="2"/>
  <text x="320" y="332" text-anchor="middle" font-family="Arial, sans-serif" font-size="12" fill="#334155">diaphragm (the sheet of muscle below the lungs)</text>

  <text x="320" y="352" text-anchor="middle" font-family="Arial, sans-serif" font-size="12" fill="#64748b">air path: nasal cavity → trachea → bronchi → bronchioles → alveoli</text>
</svg>
